# xmcd CD database file
#
# Track frame offsets:
#	150
#	6210
#	38496
#	63459
#	95823
#	123391
#	148376
#	171609
#	194682
#	218243
#
# Disc length: 3089 seconds
#
# Revision: 0
# Processed by: cddbd v1.5.2PL0 Copyright (c) Steve Scherf et al.
# Submitted via: CDex 1.51
#
DISCID=9e0c0f0a
DTITLE=Kommissar Kugelblitz - 07 Der schwarze Geist
DYEAR=2000
DGENRE=Kids
TTITLE0=Kugelblitz-Rap
TTITLE1=1. Der schwarze Geist
TTITLE2=2. EIN brenzliger Fall
TTITLE3=3. Die verdächtige schwarze kiste
TTITLE4=4. Der nachtschwarze Porsche
TTITLE5=5. Der Dieb mit den pechschwarzen Haaren
TTITLE6=6. Trauer um Charly
TTITLE7=7. mitternachtssplitter
TTITLE8=8. Die schwarze Sieben
TTITLE9=Lösungen
EXTD=YEAR: 2000
EXTT0=
EXTT1=
EXTT2=
EXTT3=
EXTT4=
EXTT5=
EXTT6=
EXTT7=
EXTT8=
EXTT9=
PLAYORDER=
